<svg xmlns="http://www.w3.org/2000/svg" fill="none" viewBox="0 0 50 44.55901">
  <!-- 顔枠 -->
  <rect
     fill="none"
     stroke="#475569"
     stroke-width="3"
     width="46.46558"
     height="30.98844"
     x="1.7672094"
     y="1.7672037"
     ry="6.2116814" />

  <!-- 左体 -->
  <path
     fill="none"
     stroke="#475569"
     stroke-width="3"
     stroke-linecap="round"
     d="m 16.496675,33.79823 -4.23176,8.993564" />

  <!-- 右体 -->
  <path
    fill="none"
    stroke="#475569"
    stroke-width="3"
    stroke-linecap="round"
    d="m 33.461628,33.79823 4.23176,8.993564" />

  <!-- 左目 -->
  <path
    fill="#475569"
    d="m 13.329135,13.466273
       a 3.4410576,4.9306928 0 0 0 -3.285197,3.465404
       l 2.533303,1.694353
       -2.40545,1.730263
       a 3.4410576,4.9306928 0 0 0 3.157344,2.971044
       3.4410576,4.9306928 0 0 0 3.441053,-4.930231
       3.4410576,4.9306928 0 0 0 -3.441053,-4.930833" />

  <!-- 右目 -->
  <path
    fill="#475569"
    d="m 35.149243,13.466273
       a 3.4410576,4.9306928 0 0 0 -3.285195,3.465404
       l 2.533306,1.694353
       -2.405455,1.730263
       a 3.4410576,4.9306928 0 0 0 3.157344,2.971044
       3.4410576,4.9306928 0 0 0 3.441063,-4.930231
       3.4410576,4.9306928 0 0 0 -3.441063,-4.930833" />
</svg>
